<mxfile host="Electron" agent="Mozilla/5.0 (Macintosh; Intel Mac OS X 10_15_7) AppleWebKit/537.36 (KHTML, like Gecko) draw.io/24.7.8 Chrome/128.0.6613.36 Electron/32.0.1 Safari/537.36" version="24.7.8">
  <diagram name="Page-1" id="SEFCXlXeCkTz0-FSRR0c">
    <mxGraphModel dx="1026" dy="772" grid="1" gridSize="10" guides="1" tooltips="1" connect="1" arrows="1" fold="1" page="1" pageScale="1" pageWidth="827" pageHeight="1169" math="0" shadow="0">
      <root>
        <mxCell id="0" />
        <mxCell id="1" parent="0" />
        <mxCell id="fKc5NH8uBtXEnQIylGRj-1" value="Observability" style="rounded=0;whiteSpace=wrap;html=1;shadow=1;sketch=1;curveFitting=1;jiggle=2;verticalAlign=bottom;dashed=1;strokeColor=#DDDDDD;fillColor=#EEEEEE;fontColor=#333333;fontStyle=1" vertex="1" parent="1">
          <mxGeometry x="200" y="20" width="700" height="540" as="geometry" />
        </mxCell>
        <mxCell id="fKc5NH8uBtXEnQIylGRj-2" value="Application" style="rounded=0;whiteSpace=wrap;html=1;shadow=1;sketch=1;curveFitting=1;jiggle=2;verticalAlign=bottom;dashed=1;strokeColor=#DDDDDD;fillColor=#EEEEEE;fontColor=#333333;align=center;fontFamily=Helvetica;fontSize=12;fontStyle=1" vertex="1" parent="1">
          <mxGeometry x="12" y="20" width="176" height="540" as="geometry" />
        </mxCell>
        <mxCell id="CHXz_w8QJ-DS33ERXOrL-22" value="Logs" style="rounded=1;whiteSpace=wrap;html=1;shadow=1;sketch=1;curveFitting=1;jiggle=2;verticalAlign=top;dashed=1;fillColor=#f5f5f5;fontColor=#333333;strokeColor=#666666;" parent="1" vertex="1">
          <mxGeometry x="500" y="410" width="160" height="100" as="geometry" />
        </mxCell>
        <mxCell id="CHXz_w8QJ-DS33ERXOrL-21" value="Metrics" style="rounded=1;whiteSpace=wrap;html=1;shadow=1;sketch=1;curveFitting=1;jiggle=2;verticalAlign=top;dashed=1;fillColor=#f5f5f5;fontColor=#333333;strokeColor=#666666;" parent="1" vertex="1">
          <mxGeometry x="500" y="300" width="160" height="100" as="geometry" />
        </mxCell>
        <mxCell id="CHXz_w8QJ-DS33ERXOrL-20" value="Traces" style="rounded=1;whiteSpace=wrap;html=1;shadow=1;sketch=1;curveFitting=1;jiggle=2;verticalAlign=top;dashed=1;fillColor=#f5f5f5;fontColor=#333333;strokeColor=#666666;" parent="1" vertex="1">
          <mxGeometry x="500" y="110" width="160" height="180" as="geometry" />
        </mxCell>
        <mxCell id="CHXz_w8QJ-DS33ERXOrL-1" value="Cart" style="rounded=1;whiteSpace=wrap;html=1;sketch=1;curveFitting=1;jiggle=2;shadow=1;fillColor=#b0e3e6;strokeColor=#0e8088;" parent="1" vertex="1">
          <mxGeometry x="40" y="200" width="120" height="60" as="geometry" />
        </mxCell>
        <mxCell id="CHXz_w8QJ-DS33ERXOrL-2" value="Catalogue" style="rounded=1;whiteSpace=wrap;html=1;sketch=1;curveFitting=1;jiggle=2;shadow=1;fillColor=#fad9d5;strokeColor=#ae4132;" parent="1" vertex="1">
          <mxGeometry x="40" y="360" width="120" height="60" as="geometry" />
        </mxCell>
        <mxCell id="CHXz_w8QJ-DS33ERXOrL-3" value="OpenTelemetry Collector" style="rounded=1;whiteSpace=wrap;html=1;sketch=1;curveFitting=1;jiggle=2;shadow=1;fillColor=#f5f5f5;strokeColor=#666666;fontColor=#333333;" parent="1" vertex="1">
          <mxGeometry x="280" y="280" width="120" height="60" as="geometry" />
        </mxCell>
        <mxCell id="CHXz_w8QJ-DS33ERXOrL-4" value="Jaeger" style="rounded=1;whiteSpace=wrap;html=1;sketch=1;curveFitting=1;jiggle=2;shadow=1;fillColor=#dae8fc;strokeColor=#6c8ebf;" parent="1" vertex="1">
          <mxGeometry x="520" y="140" width="120" height="60" as="geometry" />
        </mxCell>
        <mxCell id="CHXz_w8QJ-DS33ERXOrL-5" value="Zipkin" style="rounded=1;whiteSpace=wrap;html=1;sketch=1;curveFitting=1;jiggle=2;shadow=1;fillColor=#dae8fc;strokeColor=#6c8ebf;" parent="1" vertex="1">
          <mxGeometry x="520" y="220" width="120" height="60" as="geometry" />
        </mxCell>
        <mxCell id="CHXz_w8QJ-DS33ERXOrL-6" value="Prometheus" style="rounded=1;whiteSpace=wrap;html=1;sketch=1;curveFitting=1;jiggle=2;shadow=1;fillColor=#d5e8d4;strokeColor=#82b366;" parent="1" vertex="1">
          <mxGeometry x="520" y="330" width="120" height="60" as="geometry" />
        </mxCell>
        <mxCell id="CHXz_w8QJ-DS33ERXOrL-7" value="Loki" style="rounded=1;whiteSpace=wrap;html=1;sketch=1;curveFitting=1;jiggle=2;shadow=1;fillColor=#e1d5e7;strokeColor=#9673a6;" parent="1" vertex="1">
          <mxGeometry x="520" y="435" width="120" height="60" as="geometry" />
        </mxCell>
        <mxCell id="CHXz_w8QJ-DS33ERXOrL-8" value="Grafana" style="rounded=1;whiteSpace=wrap;html=1;sketch=1;curveFitting=1;jiggle=2;shadow=1;fillColor=#ffe6cc;strokeColor=#d79b00;" parent="1" vertex="1">
          <mxGeometry x="760" y="280" width="120" height="60" as="geometry" />
        </mxCell>
        <mxCell id="CHXz_w8QJ-DS33ERXOrL-9" value="" style="endArrow=classic;html=1;rounded=0;sketch=1;curveFitting=1;jiggle=2;shadow=1;" parent="1" source="CHXz_w8QJ-DS33ERXOrL-1" target="CHXz_w8QJ-DS33ERXOrL-3" edge="1">
          <mxGeometry width="50" height="50" relative="1" as="geometry">
            <mxPoint x="810" y="390" as="sourcePoint" />
            <mxPoint x="860" y="340" as="targetPoint" />
          </mxGeometry>
        </mxCell>
        <mxCell id="CHXz_w8QJ-DS33ERXOrL-10" value="" style="endArrow=classic;html=1;rounded=0;sketch=1;curveFitting=1;jiggle=2;shadow=1;" parent="1" source="CHXz_w8QJ-DS33ERXOrL-2" target="CHXz_w8QJ-DS33ERXOrL-3" edge="1">
          <mxGeometry width="50" height="50" relative="1" as="geometry">
            <mxPoint x="170" y="260" as="sourcePoint" />
            <mxPoint x="290" y="300" as="targetPoint" />
          </mxGeometry>
        </mxCell>
        <mxCell id="CHXz_w8QJ-DS33ERXOrL-11" value="" style="endArrow=classic;html=1;rounded=0;sketch=1;curveFitting=1;jiggle=2;shadow=1;" parent="1" source="CHXz_w8QJ-DS33ERXOrL-3" target="CHXz_w8QJ-DS33ERXOrL-4" edge="1">
          <mxGeometry width="50" height="50" relative="1" as="geometry">
            <mxPoint x="170" y="260" as="sourcePoint" />
            <mxPoint x="290" y="300" as="targetPoint" />
          </mxGeometry>
        </mxCell>
        <mxCell id="CHXz_w8QJ-DS33ERXOrL-12" value="" style="endArrow=classic;html=1;rounded=0;sketch=1;curveFitting=1;jiggle=2;shadow=1;" parent="1" source="CHXz_w8QJ-DS33ERXOrL-3" target="CHXz_w8QJ-DS33ERXOrL-5" edge="1">
          <mxGeometry width="50" height="50" relative="1" as="geometry">
            <mxPoint x="410" y="290" as="sourcePoint" />
            <mxPoint x="530" y="230" as="targetPoint" />
          </mxGeometry>
        </mxCell>
        <mxCell id="CHXz_w8QJ-DS33ERXOrL-13" value="" style="endArrow=classic;html=1;rounded=0;sketch=1;curveFitting=1;jiggle=2;shadow=1;" parent="1" source="CHXz_w8QJ-DS33ERXOrL-3" target="CHXz_w8QJ-DS33ERXOrL-6" edge="1">
          <mxGeometry width="50" height="50" relative="1" as="geometry">
            <mxPoint x="410" y="310" as="sourcePoint" />
            <mxPoint x="530" y="290" as="targetPoint" />
          </mxGeometry>
        </mxCell>
        <mxCell id="CHXz_w8QJ-DS33ERXOrL-14" value="" style="endArrow=classic;html=1;rounded=0;sketch=1;curveFitting=1;jiggle=2;shadow=1;" parent="1" source="CHXz_w8QJ-DS33ERXOrL-3" target="CHXz_w8QJ-DS33ERXOrL-7" edge="1">
          <mxGeometry width="50" height="50" relative="1" as="geometry">
            <mxPoint x="410" y="338" as="sourcePoint" />
            <mxPoint x="530" y="373" as="targetPoint" />
          </mxGeometry>
        </mxCell>
        <mxCell id="CHXz_w8QJ-DS33ERXOrL-15" value="" style="endArrow=classic;html=1;rounded=0;sketch=1;curveFitting=1;jiggle=2;shadow=1;" parent="1" source="CHXz_w8QJ-DS33ERXOrL-7" target="CHXz_w8QJ-DS33ERXOrL-8" edge="1">
          <mxGeometry width="50" height="50" relative="1" as="geometry">
            <mxPoint x="410" y="338" as="sourcePoint" />
            <mxPoint x="530" y="373" as="targetPoint" />
          </mxGeometry>
        </mxCell>
        <mxCell id="CHXz_w8QJ-DS33ERXOrL-16" value="" style="endArrow=classic;html=1;rounded=0;sketch=1;curveFitting=1;jiggle=2;shadow=1;strokeColor=#999999;" parent="1" source="CHXz_w8QJ-DS33ERXOrL-6" target="CHXz_w8QJ-DS33ERXOrL-8" edge="1">
          <mxGeometry width="50" height="50" relative="1" as="geometry">
            <mxPoint x="635" y="450" as="sourcePoint" />
            <mxPoint x="785" y="350" as="targetPoint" />
          </mxGeometry>
        </mxCell>
        <mxCell id="CHXz_w8QJ-DS33ERXOrL-17" value="" style="endArrow=classic;html=1;rounded=0;sketch=1;curveFitting=1;jiggle=2;shadow=1;strokeColor=#999999;" parent="1" source="CHXz_w8QJ-DS33ERXOrL-5" target="CHXz_w8QJ-DS33ERXOrL-8" edge="1">
          <mxGeometry width="50" height="50" relative="1" as="geometry">
            <mxPoint x="650" y="373" as="sourcePoint" />
            <mxPoint x="770" y="338" as="targetPoint" />
          </mxGeometry>
        </mxCell>
        <mxCell id="CHXz_w8QJ-DS33ERXOrL-18" value="" style="endArrow=classic;html=1;rounded=0;sketch=1;curveFitting=1;jiggle=2;shadow=1;strokeColor=#999999;" parent="1" source="CHXz_w8QJ-DS33ERXOrL-4" target="CHXz_w8QJ-DS33ERXOrL-8" edge="1">
          <mxGeometry width="50" height="50" relative="1" as="geometry">
            <mxPoint x="650" y="290" as="sourcePoint" />
            <mxPoint x="770" y="310" as="targetPoint" />
          </mxGeometry>
        </mxCell>
        <mxCell id="CHXz_w8QJ-DS33ERXOrL-19" value="Traces/Metrics/Logs" style="text;html=1;align=center;verticalAlign=middle;whiteSpace=wrap;rounded=0;fontStyle=0" parent="1" vertex="1">
          <mxGeometry x="130" y="295" width="140" height="30" as="geometry" />
        </mxCell>
        <mxCell id="CHXz_w8QJ-DS33ERXOrL-24" value="" style="curved=1;endArrow=classic;html=1;rounded=0;strokeWidth=2;dashed=1;dashPattern=8 8;strokeColor=#999999;" parent="1" source="CHXz_w8QJ-DS33ERXOrL-3" target="CHXz_w8QJ-DS33ERXOrL-8" edge="1">
          <mxGeometry width="50" height="50" relative="1" as="geometry">
            <mxPoint x="790" y="350" as="sourcePoint" />
            <mxPoint x="810" y="140" as="targetPoint" />
            <Array as="points">
              <mxPoint x="440" y="90" />
              <mxPoint x="590" y="40" />
              <mxPoint x="740" y="100" />
            </Array>
          </mxGeometry>
        </mxCell>
        <mxCell id="CHXz_w8QJ-DS33ERXOrL-25" value="Can collect traces and metrics directly by Grafana" style="text;html=1;align=center;verticalAlign=middle;whiteSpace=wrap;rounded=0;fontColor=#999999;" parent="1" vertex="1">
          <mxGeometry x="710" y="70" width="120" height="60" as="geometry" />
        </mxCell>
        <mxCell id="CHXz_w8QJ-DS33ERXOrL-26" value="Optional" style="text;html=1;align=center;verticalAlign=middle;whiteSpace=wrap;rounded=0;fontColor=#999999;" parent="1" vertex="1">
          <mxGeometry x="670" y="250" width="60" height="30" as="geometry" />
        </mxCell>
      </root>
    </mxGraphModel>
  </diagram>
</mxfile>
